<!DOCTYPE svg PUBLIC "-//W3C//DTD SVG 1.1//EN" "http://www.w3.org/Graphics/SVG/1.1/DTD/svg11.dtd">
<!-- Uploaded to: SVG Repo, www.svgrepo.com, Transformed by: SVG Repo Mixer Tools -->
<svg fill="#ffffff" width="256px" height="256px" viewBox="0 0 32.00 32.00" xmlns="http://www.w3.org/2000/svg" transform="matrix(-1, 0, 0, 1, 0, 0)" stroke="#ffffff" stroke-width="0.032">
<g id="SVGRepo_bgCarrier" stroke-width="0">
<path transform="translate(0, 0), scale(2)" fill="#7ed0ec" d="M9.166.33a2.25 2.25 0 00-2.332 0l-5.25 3.182A2.25 2.25 0 00.5 5.436v5.128a2.25 2.25 0 001.084 1.924l5.25 3.182a2.25 2.25 0 002.332 0l5.25-3.182a2.25 2.25 0 001.084-1.924V5.436a2.25 2.25 0 00-1.084-1.924L9.166.33z" strokewidth="0"/>
</g>
<g id="SVGRepo_tracerCarrier" stroke-linecap="round" stroke-linejoin="round" stroke="#CCCCCC" stroke-width="0.064"/>
<g id="SVGRepo_iconCarrier">
<path d="M5 24.225V7.776h22v16.447H5v.002zm3.011-1.815h15.978l-5.111-5.115L16 20.179l-2.877-2.883-5.112 5.114zm-1.216-1.275l5.077-5.09-5.077-5.065v10.155zm13.332-5.09l5.079 5.09V10.979l-5.079 5.066zm-4.126 1.588l8.022-8.027-16.045-.001 8.023 8.028z"/>
</g>
</svg>